# xmcd CD database file
#
# Track frame offsets:
#	150
#	15130
#	30098
#	45056
#	58790
#	73554
#	85841
#	100810
#	113045
#	128099
#	141948
#	155599
#	169946
#	183762
#	197668
#
# Disc length: 2810 seconds
#
# Revision: 1
# Processed by: cddbd v1.4PL0 Copyright (c) Steve Scherf et al.
# Submitted via: CDex 1.50Beta7
#
DISCID=b00af80f
DTITLE=Duke Ellington - Jazz
DYEAR=2000
DGENRE=Jazz
TTITLE0=Concerto for Cootie
TTITLE1=I got it bad and than ain't good
TTITLE2=In a Mellotone
TTITLE3=Prelude to a kiss
TTITLE4=Jack the bear
TTITLE5=Ko - Ko
TTITLE6=Lover man (D. Ellington with Marion Cox)
TTITLE7=Sophisticated Lady
TTITLE8=Never no lament
TTITLE9=I let a song go out of my heart
TTITLE10=Sentimental lady
TTITLE11=Perido
TTITLE12=In a Sentimental mood
TTITLE13=Solitude
TTITLE14=Take the "A" train
EXTD=YEAR: 2000
EXTT0=
EXTT1=
EXTT2=
EXTT3=
EXTT4=
EXTT5=
EXTT6=
EXTT7=
EXTT8=
EXTT9=
EXTT10=
EXTT11=
EXTT12=
EXTT13=
EXTT14=
PLAYORDER=
